<svg width="32" height="32" viewBox="0 0 32 32" fill="none" xmlns="http://www.w3.org/2000/svg">
<path fill-rule="evenodd" clip-rule="evenodd" d="M4.19118 31.8191C4.83889 31.9403 5.49574 32.0008 6.15385 32C8.23379 32.0029 10.2721 31.3941 12.0336 30.2438C13.3038 30.5544 14.633 30.72 16 30.72C24.7335 30.72 32 23.9445 32 15.36C32 6.77546 24.7335 0 16 0C7.26646 0 0 6.77546 0 15.36C0 19.4714 1.68205 23.1885 4.3881 25.9277C4.76882 26.3134 4.84267 26.6581 4.80492 26.8544C4.60212 27.916 4.14237 28.9064 3.46913 29.7318C3.32936 29.9034 3.23554 30.1103 3.1971 30.3316C3.15865 30.5529 3.17696 30.7809 3.25016 30.9925C3.32337 31.2041 3.44889 31.3919 3.61408 31.537C3.77928 31.6821 3.97833 31.7794 4.19118 31.8191ZM9.84615 13.44C9.35652 13.44 8.88695 13.6423 8.54073 14.0024C8.19451 14.3624 8 14.8508 8 15.36C8 15.8692 8.19451 16.3576 8.54073 16.7176C8.88695 17.0777 9.35652 17.28 9.84615 17.28C10.3358 17.28 10.8054 17.0777 11.1516 16.7176C11.4978 16.3576 11.6923 15.8692 11.6923 15.36C11.6923 14.8508 11.4978 14.3624 11.1516 14.0024C10.8054 13.6423 10.3358 13.44 9.84615 13.44ZM14.1538 15.36C14.1538 14.8508 14.3484 14.3624 14.6946 14.0024C15.0408 13.6423 15.5104 13.44 16 13.44C16.4896 13.44 16.9592 13.6423 17.3054 14.0024C17.6516 14.3624 17.8462 14.8508 17.8462 15.36C17.8462 15.8692 17.6516 16.3576 17.3054 16.7176C16.9592 17.0777 16.4896 17.28 16 17.28C15.5104 17.28 15.0408 17.0777 14.6946 16.7176C14.3484 16.3576 14.1538 15.8692 14.1538 15.36ZM22.1538 13.44C21.6642 13.44 21.1946 13.6423 20.8484 14.0024C20.5022 14.3624 20.3077 14.8508 20.3077 15.36C20.3077 15.8692 20.5022 16.3576 20.8484 16.7176C21.1946 17.0777 21.6642 17.28 22.1538 17.28C22.6435 17.28 23.1131 17.0777 23.4593 16.7176C23.8055 16.3576 24 15.8692 24 15.36C24 14.8508 23.8055 14.3624 23.4593 14.0024C23.1131 13.6423 22.6435 13.44 22.1538 13.44Z" fill="url(#paint0_linear_209_5)"/>
<defs>
<linearGradient id="paint0_linear_209_5" x1="16" y1="0" x2="16" y2="32" gradientUnits="userSpaceOnUse">
<stop stop-color="#F59E0B"/>
<stop offset="1" stop-color="#F43F5E"/>
</linearGradient>
</defs>
</svg>
